<svg width="736.561" height="736.561" xmlns="http://www.w3.org/2000/svg">

 <g>
  <title>background</title>
  <rect fill="none" id="canvas_background" height="402" width="582" y="-1" x="-1"/>
 </g>
 <g>
  <title>Layer 1</title>
  <g id="svg_6"/>
  <g id="svg_7"/>
  <g id="svg_8"/>
  <g id="svg_9"/>
  <g id="svg_10"/>
  <g id="svg_11"/>
  <g id="svg_12"/>
  <g id="svg_13"/>
  <g id="svg_14"/>
  <g id="svg_15"/>
  <g id="svg_16"/>
  <g id="svg_17"/>
  <g id="svg_18"/>
  <g id="svg_19"/>
  <g id="svg_20"/>
  <ellipse ry="205" rx="212.5" id="svg_21" cy="221" cx="382.780502" stroke-width="1.5" stroke="#000" fill="#fff"/>
  <g id="svg_1">
   <g id="svg_2">
    <g id="svg_3">
     <g id="svg_4">
      <path id="svg_5" fill="#5adb67" d="m371.84551,-2c-128.982,0 -233.074,102.96 -233.074,231.943c0,127.852 231.943,504.618 231.943,504.618s233.075,-376.766 233.075,-504.618c-0.001,-128.983 -104.092,-231.943 -231.944,-231.943zm0,412.971c-104.091,0 -188.948,-84.856 -188.948,-188.948s84.857,-188.949 188.948,-188.949c104.092,0 188.949,84.857 188.949,188.949c-1.131,105.223 -85.989,188.948 -188.949,188.948z"/>
     </g>
    </g>
   </g>
  </g>
  <g stroke="null" id="svg_44">
   <g stroke="null" transform="matrix(0.4578920062685258,0,0,0.49557585053818237,-316.254631336226,-127.36715998594136) " id="svg_26">
    <g stroke="null" id="svg_27">
     <path stroke="null" id="svg_28" fill="#5adb67" d="m1708.976768,503.091715c-29,-31.667 -73.5,-47.5 -133.5,-47.5l-231,0l0,512l112,0l0,-164l119,0c30.667,0 57.833,-5.5 81.5,-16.5s42.167,-25.833 55.5,-44.5s23.333,-38.334 30,-59c6.667,-20.667 10,-42 10,-64c0,-46 -14.5,-84.833 -43.5,-116.5zm-91.5,182.5c-17.333,10.667 -41.667,16 -73,16l-88,0l0,-154l88,0c31.334,0 55.667,5.333 73,16s26,31 26,61s-8.667,50.333 -26,61z"/>
    </g>
   </g>
   <g stroke="null" transform="matrix(0.4578920062685258,0,0,0.49557585053818237,-316.254631336226,-127.36715998594136) " id="svg_29"/>
   <g stroke="null" transform="matrix(0.4578920062685258,0,0,0.49557585053818237,-316.254631336226,-127.36715998594136) " id="svg_30"/>
   <g stroke="null" transform="matrix(0.4578920062685258,0,0,0.49557585053818237,-316.254631336226,-127.36715998594136) " id="svg_31"/>
   <g stroke="null" transform="matrix(0.4578920062685258,0,0,0.49557585053818237,-316.254631336226,-127.36715998594136) " id="svg_32"/>
   <g stroke="null" transform="matrix(0.4578920062685258,0,0,0.49557585053818237,-316.254631336226,-127.36715998594136) " id="svg_33"/>
   <g stroke="null" transform="matrix(0.4578920062685258,0,0,0.49557585053818237,-316.254631336226,-127.36715998594136) " id="svg_34"/>
   <g stroke="null" transform="matrix(0.4578920062685258,0,0,0.49557585053818237,-316.254631336226,-127.36715998594136) " id="svg_35"/>
   <g stroke="null" transform="matrix(0.4578920062685258,0,0,0.49557585053818237,-316.254631336226,-127.36715998594136) " id="svg_36"/>
   <g stroke="null" transform="matrix(0.4578920062685258,0,0,0.49557585053818237,-316.254631336226,-127.36715998594136) " id="svg_37"/>
   <g stroke="null" transform="matrix(0.4578920062685258,0,0,0.49557585053818237,-316.254631336226,-127.36715998594136) " id="svg_38"/>
   <g stroke="null" transform="matrix(0.4578920062685258,0,0,0.49557585053818237,-316.254631336226,-127.36715998594136) " id="svg_39"/>
   <g stroke="null" transform="matrix(0.4578920062685258,0,0,0.49557585053818237,-316.254631336226,-127.36715998594136) " id="svg_40"/>
   <g stroke="null" transform="matrix(0.4578920062685258,0,0,0.49557585053818237,-316.254631336226,-127.36715998594136) " id="svg_41"/>
   <g stroke="null" transform="matrix(0.4578920062685258,0,0,0.49557585053818237,-316.254631336226,-127.36715998594136) " id="svg_42"/>
   <g stroke="null" transform="matrix(0.4578920062685258,0,0,0.49557585053818237,-316.254631336226,-127.36715998594136) " id="svg_43"/>
  </g>
 </g>
</svg>